<svg xmlns="http://www.w3.org/2000/svg" viewBox="0 0 29 22" fill="none">
<path fill="url(#a)" fill-rule="evenodd" d="M22 8c0-2.5-2.5-8-9.5-8-4.67 0-8 .67-10 2-1.33 2.67-2 5.67-2 9 0 5 25-2.5 21.5-3Z" clip-rule="evenodd"/><path fill="url(#b)" fill-rule="evenodd" d="M22.5 19c4 0 6-2.5 6-5.5s-3-5-6.5-5.5C12.35 6.62.5 10 .5 10c0 6 3.5 9 6.5 9h15.5Z" clip-rule="evenodd"/><path fill="url(#c)" fill-rule="evenodd" d="M7.5 14a4 4 0 1 1 0 8 4 4 0 0 1 0-8Zm14 0a4 4 0 1 1 0 8 4 4 0 0 1 0-8Z" clip-rule="evenodd"/><path fill="#fff" d="M16.5 10a1 1 0 0 1 .12 2H14.5a1 1 0 0 1-.12-2h2.12Zm-7 0a1 1 0 0 1 .12 2H7.5a1 1 0 0 1-.12-2H9.5Z"/><defs><linearGradient id="a" x1="10.58" x2="6.67" y1="4.2" y2="8.69" gradientUnits="userSpaceOnUse"><stop stop-color="#D0EAFF"/><stop offset="1" stop-color="#AAC1EA"/></linearGradient><linearGradient id="b" x1=".5" x2="25.21" y1="12.41" y2="22.4" gradientUnits="userSpaceOnUse"><stop stop-color="#FF8F9D"/><stop offset="1" stop-color="#DB2700"/></linearGradient><linearGradient id="c" x1="14.5" x2="14.5" y1="14" y2="22" gradientUnits="userSpaceOnUse"><stop stop-color="#6F6868"/><stop offset="1"/></linearGradient></defs></svg>