<svg xmlns="http://www.w3.org/2000/svg" viewBox="0 0 26 26" fill="none"><circle cx="12.16" cy="13.84" r="12.16" fill="url(#a)"/><path fill="url(#b)" d="M12.58 2.12v4.63c0 .95.69 1.73 1.58 2.07 1.3.5 2.53 1.47 3.12 3.64.28 1 1.1 1.8 2.14 1.8h4.7c1.04 0 1.92-.79 1.86-1.82C25.74 8.03 23.25 1.6 14.68.23c-1.13-.19-2.1.74-2.1 1.89Z"/><circle r=".89" fill="#fff" transform="scale(.99818 1.00182) rotate(45 2.21 21.05)"/><circle r=".89" fill="#fff" transform="scale(.99818 1.00182) rotate(45 -2.53 32.48)"/><circle cx="12.16" cy="13.84" r="7.13" fill="url(#c)"/><circle cx="12.16" cy="13.84" r="2.94" fill="#fff"/><defs><linearGradient id="a" x1="2.61" x2="9.17" y1="7.24" y2="19.77" gradientUnits="userSpaceOnUse"><stop stop-color="#D0EAFF"/><stop offset="1" stop-color="#AAC1EA"/></linearGradient><linearGradient id="b" x1="4.53" x2="18.84" y1="7.15" y2="21.62" gradientUnits="userSpaceOnUse"><stop stop-color="#FF8F9D"/><stop offset="1" stop-color="#DB2700"/></linearGradient><linearGradient id="c" x1="5.03" x2="5.03" y1="6.71" y2="20.12" gradientUnits="userSpaceOnUse"><stop stop-color="#6F6868"/><stop offset="1"/></linearGradient></defs></svg>